<svg width="374" height="221" viewBox="0 0 374 221" fill="none" xmlns="http://www.w3.org/2000/svg">
<path d="M288.788 214.324C290.077 208.556 286.181 204.484 283.927 199.915C283.652 199.347 282.221 199.361 281.119 199.042L279.444 193.377L276.715 195.237C275.726 192.471 275.202 192.628 270.102 197.618C271.826 190.09 271.331 188.747 267.004 188.965C265.458 187.235 269.591 184.811 266.24 183.274C262.591 181.61 262.644 185.782 260.153 186.558C261.212 184.305 262.27 182.031 263.328 179.798C264.134 178.522 264.872 177.206 265.54 175.853C265.894 174.932 266.106 173.317 265.618 172.854C264.446 171.754 263.046 170.538 261.05 171.927C258.46 173.742 255.611 175.156 252.599 176.121C255.087 173.924 257.711 171.851 259.982 169.488C260.898 168.512 261.138 166.957 261.681 165.661L257.603 165.556C258.628 164.582 259.724 163.61 260.859 162.639C261.268 162.309 262.097 162.36 262.336 161.986C265.244 157.46 268.946 153.154 270.694 148.197C272.186 143.874 268.685 139.562 264.248 137.477C261.075 135.985 263.023 132.984 262.421 130.718C262.324 129.592 262.401 128.457 262.648 127.353C256.816 127.733 254.736 132.351 251.487 135.789C252.791 131.761 258.454 128.225 251.984 124.648L240.523 119.071L239.28 109.476C240.601 107.889 242.465 105.416 244.602 103.231C245.26 102.547 246.689 102.614 247.757 102.312C248.81 101.939 249.895 101.666 250.999 101.495C252.061 101.422 254.057 101.633 254.09 101.894C254.448 105.065 256.642 104.961 258.298 104.754C259.241 106.979 259.697 109.861 261.053 110.416C262.409 110.971 265.014 109.648 266.642 108.56C267.457 107.99 267.327 106.056 267.53 105.171L286.537 91.1357L287.061 91.3993L285.547 94.2613L285.823 95.1887C289.346 94.3291 292.869 93.4794 296.01 92.72C296.374 93.7297 296.455 95.2623 297.136 95.61C300.285 97.2315 303.205 96.1163 305.778 94.1018L308.304 98.5283L307.259 100.292C308.75 100.25 309.751 100.226 310.752 100.212C309.131 103.321 310.411 106.055 314.929 108.922C313.021 111.164 314.07 112.001 316.518 112.494C319.801 113.169 320.749 115.604 318.782 118.174C316.816 120.745 317.93 122.534 319.456 124.654C320.545 126.449 321.542 128.297 322.444 130.193C323.077 131.269 323.922 132.231 324.636 133.25C325.35 134.269 325.906 135.213 326.561 136.211L325.54 136.995L322.599 134.678C321.746 133.996 320.907 132.774 320.047 132.762C318.598 132.725 317.147 133.507 315.696 133.94C316.474 134.811 317.082 136.057 318.05 136.512C322.084 138.366 326.224 139.983 330.123 142.384C327.888 141.767 325.6 141.268 323.44 140.482C320.815 139.474 319.138 140.111 318.488 142.835C317.834 145.262 317.313 147.723 316.927 150.207C316.659 151.815 316.774 153.463 317.264 155.018C318.406 158.048 320.115 160.843 321.319 163.815C321.601 164.512 320.974 165.537 320.982 166.407C320.952 167.587 320.741 169.162 321.383 169.868C326.09 175.081 327.142 179.29 324.218 184.496C328.346 186.173 328.611 189.861 328.874 194.399C327.915 192.947 326.833 191.58 325.638 190.315C324.7 189.519 323.529 189.05 322.301 188.978C321.842 188.967 321.358 190.665 320.061 191.702C320.113 190.148 320.059 188.592 319.9 187.046C319.613 186.206 319.176 185.426 318.609 184.742C317.21 185.68 315.874 186.708 314.609 187.82C314.106 188.297 314.392 189.625 313.89 190.082C310.02 193.554 311.529 197.504 312.596 201.503C313.009 203.433 313.313 205.384 313.506 207.348C311.903 207.047 310.519 206.781 309.116 206.525C305.65 198.153 305.182 197.681 301.895 199.457L299.115 195.554C298.378 196.955 297.474 197.903 297.459 198.872C297.409 200.822 296.476 201.278 294.815 201.305C290.601 201.397 288.557 204.265 289.358 208.517C289.709 210.427 291.673 212.638 288.779 214.274L288.788 214.324ZM266.609 110.259C264.529 111.042 262.501 111.955 260.536 112.994C260.13 113.234 260.198 114.866 260.559 115.615C260.825 116.172 262.228 116.819 262.595 116.588C264.638 115.3 267.273 114.368 266.609 110.259Z" fill="white"/>
<path d="M138.167 199.594C139.695 201.634 138.632 202.927 136.742 203.658C134.197 204.593 131.576 205.396 128.983 206.239C122.891 208.21 116.795 210.177 110.695 212.141C110.423 212.234 110.076 212.125 109.521 211.5L133.411 200.952L133.239 200.227L128.761 200.112L128.665 199.559C132.469 198.307 136.236 196.913 140.093 195.912C141.039 195.666 142.312 196.759 143.452 197.169C144.049 197.469 144.714 197.607 145.382 197.569C150.021 196.478 154.653 195.326 158.234 191.837C158.468 191.608 158.754 191.437 159.067 191.339C163.24 190.096 167.441 188.963 171.576 187.659C174.53 186.769 177.411 185.652 180.194 184.32C180.732 184.044 180.463 182.036 180.444 180.835C180.464 180.046 179.819 179.069 180.114 178.516C181.163 176.602 182.119 174.446 183.725 173.087C186.68 170.582 185.293 168.886 183.631 167.413L184.121 163.114L183.346 162.934C185.896 160.229 188.633 157.678 190.889 154.755C191.674 153.775 191.284 151.815 191.377 150.947C193.092 148.83 194.585 146.778 196.303 144.932C198.752 142.304 202.175 142.202 205.383 141.954C207.178 141.953 208.971 142.096 210.744 142.382C211.042 142.369 211.339 142.429 211.609 142.555C214.437 144.628 217.245 146.701 220.012 148.773C217.354 149.855 217.524 151.41 220.145 153.348C221.215 154.136 221.767 155.59 222.691 156.614C224.637 158.755 229.031 159.038 231.781 157.919C233.206 157.335 235.113 157.895 236.902 157.941L235.868 153.012C238.176 154.282 239.921 154.887 241.202 156.031C243.764 158.327 243.737 161.328 243.382 164.63C242.892 169.288 243.31 174.021 246.543 177.855C247.271 178.714 248.653 179.02 249.285 179.356C247.919 182.398 246.724 185.513 245.704 188.687C245.017 191.25 246.309 193.154 249.034 194.145C250.59 194.715 251.898 195.989 253.314 196.946L252.812 198.183C250.438 197.912 248.068 197.501 245.689 197.41C244.543 197.53 243.418 197.807 242.347 198.234C242.786 199.436 242.896 200.989 243.726 201.781C246.655 204.587 250.123 206.637 251.134 211.264C251.654 213.619 254.387 215.48 256.221 217.687C254.521 220.785 255.555 223.362 257.939 225.934C262.154 230.474 266.112 235.238 270.163 239.934C270.41 240.397 270.589 240.893 270.695 241.408C267.556 242.497 266.412 240.297 264.948 238.489C259.745 231.953 254.593 225.358 249.103 219.075C247.365 217.029 244.674 215.86 242.33 214.419C241.927 214.168 241.135 214.608 240.514 214.652C239.371 214.743 237.917 215.266 237.12 214.755C233.488 212.471 230.702 214.59 228.767 215.54L225.645 222.572C225.053 221.345 224.374 220.161 223.616 219.029C223.005 218.253 222.084 217.119 221.383 217.171C220.272 217.422 219.284 218.05 218.586 218.949C217.982 219.736 217.612 220.676 217.516 221.663C217.11 224.983 215.5 224.972 213.013 223.638C211.787 223.021 210.371 222.899 209.057 223.297C207.744 223.695 206.633 224.583 205.956 225.777C205.318 226.841 203.754 228.551 203.438 228.383C201.8 227.532 200.337 226.382 199.124 224.991C197.584 223.015 196.151 220.958 194.831 218.828L192.41 223.497C191.913 222.624 191.604 222.156 191.367 221.66C190.676 220.132 189.961 219.163 188.288 220.79C186.77 222.262 185.168 222.341 184.74 219.899C184.112 216.321 183.766 212.681 183.379 209.06C183.336 208.06 183.362 207.058 183.456 206.061C183.012 205.81 182.818 205.595 182.647 205.62C176.132 206.523 175.742 205.743 177.859 199.265C178.565 197.112 178.477 193.919 177.322 192.139C175.86 189.88 173.129 188.7 169.823 190.075C163.513 192.704 157.118 195.16 150.632 197.234C146.782 198.355 142.621 198.748 138.167 199.594Z" fill="white"/>
<path d="M139.753 92.1487C135.604 88.5608 134.707 88.4377 131.861 90.9453L131.574 88.4871L125.329 81.6341C128.344 79.1108 126.465 76.3316 124.805 73.6179C125.824 72.3535 126.952 71.1809 128.176 70.1135C129.856 68.9112 131.865 68.2545 133.93 68.2325C135.996 68.2105 138.018 68.8243 139.723 69.9906C141.553 71.1781 142.925 71.9036 145.194 70.0114C147.791 67.8475 151.281 66.727 154.324 65.0747C158.169 62.983 161.719 64.6049 164.279 66.9515C165.891 68.4435 165.806 71.7524 166.73 75.1273C170.43 77.5133 176.952 76.3307 179.062 72.0736C179.242 75.9895 185.316 77.8265 192.656 75.9847C191.423 78.4238 191.078 80.5656 194.141 81.6648C194.458 81.773 194.537 82.5753 194.695 83.0596C195.441 85.648 196.341 88.1898 197.39 90.6714C196.907 91.9394 194.761 93.3047 197.078 94.2546L194.027 102.409C189.959 101.884 191.632 106.448 189.504 108.294C185.372 108.328 184.018 109.213 183.074 112.85L180.839 111.102L180.462 114.094C177.996 113.49 175.502 112.445 173.073 112.393C169.867 112.328 166.701 111.663 163.74 110.432C162.136 109.872 160.759 108.804 159.817 107.39C158.602 105.628 157.384 106.327 156.448 107.723C155.241 109.503 154.163 111.366 152.818 113.082C153.175 108.96 157.94 106.491 157.117 101.529C155.671 101.732 154.447 101.9 153.433 102.044C154.493 99.7305 155.793 97.4032 156.617 94.9236C157.341 92.8416 154.552 90.419 152.185 90.6782C150.74 90.831 149.005 90.2362 147.859 90.8369C145.083 92.2159 141.857 88.1316 139.753 92.1487Z" fill="white"/>
<path d="M267.102 49.5017C263.084 50.1485 261.255 52.0321 262.69 54.5999C260.928 54.2344 259.011 53.3448 257.283 53.6104C255.747 53.8509 254.407 55.377 253.429 56.042C248.457 54.9137 243.712 53.8813 238.997 52.8396L234.763 46.7286C235.72 44.5225 234.809 41.0479 233.514 40.4444L234.069 32.8862L233.074 32.6605L235.544 32.3339C236.133 27.6976 240.316 26.4548 242.261 24.7343C245.553 24.3389 247.886 24.2389 250.139 23.7567C252.694 23.2022 256.548 25.4521 258.349 26.969C262.097 30.2065 262.643 36.5727 268.758 37.2403C267.74 37.9343 266.408 38.4002 266.239 39.1261C266.07 39.852 267.124 40.8694 267.51 41.8097C267.915 42.5773 268.132 43.4294 268.146 44.2969C267.888 46.0486 267.539 47.7859 267.102 49.5017V49.5017Z" fill="white"/>
<path d="M57.0827 46.7864L56.0846 49.0314C58.0646 49.8327 59.877 50.5395 61.0358 50.9895L62.8244 54.5667C62.8652 56.4168 63.0688 58.2598 63.4328 60.0742C64.2326 62.8157 61.5417 64.367 61.469 66.8059C61.3187 67.9584 60.8887 69.0567 60.2162 70.0047C59.8925 70.5366 59.0376 70.7146 58.5356 71.1719C56.2238 73.5226 53.3234 75.2098 50.1371 76.0574C45.434 77.2867 42.0719 75.3796 39.0354 73.6509C35.3781 71.5561 33.6842 67.4111 33.3848 62.7219C33.0587 57.5117 36.6899 54.4041 38.7035 50.4046C40.393 46.947 44.64 47.8966 47.0138 45.4468C47.6098 44.832 49.931 45.9821 51.4759 46.2019C53.1599 46.4553 54.8975 46.5701 57.0827 46.7864Z" fill="white"/>
<path d="M209.114 124.874C207.773 127.05 206.279 129.128 204.642 131.091C203.326 132.488 201.404 133.299 199.756 134.377C198.341 135.341 196.604 135.976 195.6 137.271C194.174 139.035 193.214 139.41 191.831 136.824C191.381 139.893 189.489 139.584 187.769 139.17C185.78 138.709 185.063 137.43 185.188 135.292C185.443 130.797 184.641 130.116 180.615 130.663C181.951 126.956 180.868 123.557 179.879 120.411C181.936 118.213 184.181 115.71 186.6 113.441C187.421 112.662 188.834 112.549 189.879 111.975C194.517 109.404 199.08 109.731 203.061 113.235C204.294 114.317 206.047 113.832 207.236 115.813C208.511 117.987 210.655 119.392 209.478 122.393C209.189 123.126 209.771 124.201 209.958 125.116L209.114 124.874Z" fill="white"/>
<path d="M114.084 57.1766C112.005 55.1724 109.634 53.6109 108.281 51.4053C106.62 48.7017 107.904 45.8338 110.047 43.7883C112.191 41.7427 114.807 40.7498 117.963 42.1314C119.713 42.9067 121.774 42.9197 123.64 43.4879C124.821 43.8484 126.617 44.3949 126.837 45.1908C127.029 46.6422 126.712 48.1155 125.939 49.3591C125.088 51.1028 123.831 52.6174 122.274 53.7762C119.988 55.1778 117.278 55.8983 114.084 57.1766Z" fill="white"/>
<path d="M107.25 64.6333C105.405 62.8653 105.494 62.5075 108.898 61.2446C110.473 60.665 111.938 59.7024 113.568 59.3642C115.042 59.269 116.522 59.3643 117.972 59.6476C118.452 60.5755 119.075 61.422 119.818 62.1559C122.548 64.1468 123.15 66.7632 122.471 69.8468C121.736 73.1289 119.027 74.2396 116.247 74.9783C114.232 75.5266 111.538 76.4276 110.059 75.5793C108.581 74.7309 108.412 71.9357 107.894 69.9217C107.57 68.174 107.354 66.4078 107.25 64.6333V64.6333Z" fill="white"/>
<path d="M232.987 93.5584C231.475 92.059 229.764 90.1444 227.826 88.504C225.192 86.2655 225.227 82.9853 228.109 79.8084C230.292 77.4237 233.252 76.2896 236.068 77.2423C238.607 78.098 241.357 79.3091 242.012 82.9972C243.001 88.4945 241.731 90.4124 236.011 91.1155C234.807 91.2645 233.764 92.9082 232.987 93.5584Z" fill="white"/>
<path d="M239.622 59.6381C239.47 62.4451 237.271 64.6992 234.783 64.5952C232.295 64.4911 229.509 61.5885 229.561 59.189C229.612 56.7895 232.962 53.3646 235.068 53.5189C236.924 53.7067 239.679 57.4388 239.622 59.6381Z" fill="white"/>
<path d="M291.719 20.8257C290.42 20.2281 289.158 19.5543 287.939 18.8078C286.839 18.0192 285.38 17.1814 285.009 16.0515C284.638 14.9216 284.86 12.5265 285.662 12.067C286.973 11.2505 289.748 10.7217 290.499 11.4713C292.041 13.2289 293.087 15.3654 293.531 17.6613C293.767 18.5677 292.272 19.9197 291.719 20.8257Z" fill="white"/>
<path d="M50.2694 163.8C52.0103 161.844 52.9315 159.867 54.3841 159.394C56.2815 158.743 59.331 161.522 59.2193 163.14C59.1055 165.228 56.7045 167.567 54.8198 166.948C53.2914 166.479 52.0856 165.137 50.2694 163.8Z" fill="white"/>
<path d="M342.632 132.863C340.787 126.813 341.627 122.154 345.076 119.922C347.215 122.697 346.115 128.531 342.632 132.863Z" fill="white"/>
<path d="M95.1367 104.245C98.3147 101.646 100.69 99.526 103.308 97.6927C104.362 97.1698 105.532 96.9212 106.708 96.97C107.259 96.9341 108.21 97.2987 108.33 97.682C108.459 98.396 108.345 99.1326 108.006 99.7743C107.73 100.245 107.284 100.591 106.761 100.743C103.08 101.888 99.4613 102.955 95.1367 104.245Z" fill="white"/>
<path d="M156.706 204.552C155.177 207.594 150.42 209.762 145.713 209.561C149.667 207.912 151.499 203.188 156.706 204.552Z" fill="white"/>
<path d="M340.817 147.031L332.457 142.634L332.545 142.347L338.85 144.159L341.28 137.99L342.095 138.191L340.817 147.031Z" fill="white"/>
<path d="M329.385 112.785C329.925 110.933 330.596 109.122 331.395 107.365C331.657 106.872 333.035 106.967 333.89 106.789C333.96 107.581 334.345 108.562 334.02 109.123C333.025 110.659 331.945 112.137 330.785 113.552L329.385 112.785Z" fill="white"/>
<path d="M231.071 119.818L231.445 105.273L232.963 105.372L231.929 119.9L231.071 119.818Z" fill="white"/>
<path d="M332.089 185.299L333.265 176.156C336.792 179.798 334.101 182.55 332.864 185.519L332.089 185.299Z" fill="white"/>
<path d="M111.436 32.2103C113.018 30.9607 114.002 29.6556 114.649 29.8022C115.643 30.0379 116.352 31.2665 117.191 32.0784C116.392 32.7981 115.672 33.9599 114.778 34.117C113.884 34.274 113.081 33.203 111.436 32.2103Z" fill="white"/>
<path d="M136.903 33.8062C137.861 35.4614 138.982 36.5806 138.749 37.0848C138.294 38.0734 137.096 38.7528 136.205 39.5601C135.652 38.8757 134.533 38.0666 134.647 37.5194C134.884 36.4451 135.799 35.5184 136.903 33.8062Z" fill="white"/>
<path d="M114.366 26.7839C116.064 25.7172 117.054 24.5923 117.861 24.7131C118.668 24.8339 119.364 26.1723 120.114 26.9718C119.296 27.641 118.517 28.7713 117.655 28.8292C116.793 28.887 115.94 27.8247 114.366 26.7839Z" fill="white"/>
<path d="M159.306 202.238C161.228 201.027 163.036 199.203 165.742 201.724L159.495 203.064L159.306 202.238Z" fill="white"/>
<path d="M288.788 214.314L290.549 226.364L289.346 226.483L288.788 214.314Z" fill="white"/>
<path d="M290.448 40.6495C292.305 39.6269 292.945 36.5224 295.788 37.2158L296.392 38.2317C294.576 39.2453 292.749 40.2586 290.932 41.2822L290.448 40.6495Z" fill="white"/>
</svg>
